<?xml version="1.0" encoding="utf-8"?>
<!-- Generator: Adobe Illustrator 19.2.1, SVG Export Plug-In . SVG Version: 6.00 Build 0)  -->
<svg version="1.1" id="layer" xmlns="http://www.w3.org/2000/svg" xmlns:xlink="http://www.w3.org/1999/xlink" x="0px" y="0px"
	 viewBox="0 490 652 10" style="enable-background:new 0 500 652 10;" xml:space="preserve">
<style type="text/css">
	.st0{fill:#0CAA41;}
</style>
<g id="FooterLogo">
	<path class="st0" d="M643.3,479c0-0.7-0.5-1.5-1.1-1.8c-1.4-0.8-3.5-1.3-7.8-1.3c-9.7,0-18.2,4.8-21.9,12.9V479
		c0-0.8-0.7-1.5-1.6-1.5h-14.4c-0.8,0-1.5,0.6-1.5,1.5v66.4c0,0.8,0.7,1.5,1.6,1.5h15.2c0.8,0,1.5-0.7,1.5-1.5v-29.9
		c0-13.3,9.3-19.9,21.2-19.9c2.8,0,5.6,0.5,7,1c1,0.3,1.9-0.4,1.9-1.5v-16.2L643.3,479z M546.5,475.8c21.3,0,37.2,14.7,37.2,36.4
		c0,21.6-15.9,36.4-37.1,36.4c-21.2,0-37-14.7-37-36.4C509.5,490.5,525.3,475.8,546.5,475.8L546.5,475.8z M546.5,530.6
		c10.4,0,18.4-7.3,18.4-18.4c0-11.1-8-18.5-18.4-18.5c-10.3,0-18.3,7.4-18.3,18.5C528.3,523.3,536.3,530.6,546.5,530.6L546.5,530.6z
		 M462.3,475.8c21.3,0,37.1,14.7,37.1,36.4c0,21.6-15.9,36.4-37,36.4c-21.3,0-37.2-14.7-37.2-36.4
		C425.2,490.5,441,475.8,462.3,475.8L462.3,475.8z M462.3,530.6c10.4,0,18.4-7.3,18.4-18.4c0-11.1-8-18.5-18.3-18.5
		c-10.3,0-18.3,7.4-18.3,18.5C444,523.4,452,530.7,462.3,530.6L462.3,530.6z M412.4,449.8c0.8,0,1.5,0.6,1.5,1.5v94.1
		c0,0.8-0.6,1.5-1.5,1.5h-15.2c-0.8,0-1.5-0.7-1.5-1.5v-8.2c-5.1,7.2-12.9,11.5-22.9,11.5c-17.1,0-31.4-13-31.4-36.5
		s14.3-36.5,31.1-36.5c10.8,0,18.5,5.1,23.2,11.8v-36.2c0-0.8,0.7-1.6,1.6-1.6L412.4,449.8L412.4,449.8z M378.2,530.9
		c10.2,0,18.1-7.2,18.1-18.6c0-11.5-7.9-18.6-18.1-18.6c-10.3,0-18.1,7.4-18.1,18.6C360.1,523.6,367.9,530.9,378.2,530.9
		L378.2,530.9z M331.4,526c0,15.8-11.4,22.6-29.8,22.6c-12.6,0-23.6-3.5-29.8-10.5c-0.5-0.6-0.5-1.4,0-2l8.7-11.5
		c0.6-0.8,1.7-0.8,2.3-0.1c4.6,4.8,11.8,7.7,20.6,7.7c5.1,0,9.3-1.4,9.3-5.3c0-3.8-3.8-4.6-15.4-7.1c-10.2-2.1-22.9-6.8-22.9-21.9
		c0-14.1,11.1-22.1,29.1-22.1c11.9,0,20.4,3.6,26.4,9.3c0.6,0.6,0.6,1.5,0.1,2.1l-8.3,10.9c-0.5,0.7-1.5,0.8-2.2,0.3
		c-4-3.7-10.8-5.9-17.5-5.9c-5.6,0-8.8,1.8-8.8,4.8c0,3.5,3.8,4.3,16,6.9C321.3,506.8,331.4,511.4,331.4,526L331.4,526z M261.4,526
		c0,15.8-11.4,22.6-29.8,22.6c-12.7,0-23.6-3.5-29.9-10.5c-0.4-0.6-0.4-1.4,0-2l8.8-11.4c0.5-0.8,1.7-0.8,2.3-0.1
		c4.6,4.8,11.8,7.7,20.6,7.7c5.1,0,9.3-1.4,9.3-5.3c0-3.8-3.8-4.6-15.4-7.1c-10.2-2.1-22.9-6.8-22.9-21.9c0-14.1,11-22.1,29.1-22.1
		c11.9,0,20.4,3.6,26.4,9.3c0.6,0.5,0.6,1.5,0.1,2.1l-8.3,10.8c-0.5,0.7-1.6,0.8-2.2,0.3c-4-3.7-10.8-5.9-17.5-5.9
		c-5.6,0-8.8,1.8-8.8,4.8c0,3.5,3.8,4.3,16,6.9C251.2,506.8,261.3,511.4,261.4,526L261.4,526z M158.7,476c20.1,0,30.2,8.9,30.2,28.2
		v41.4c0,0.8-0.7,1.5-1.6,1.5h-15.2c-0.8,0-1.5-0.6-1.5-1.5v-7.9c-3.5,5.6-10.4,10.8-21.2,10.8c-13.7,0-23.3-8.8-23.3-21.6
		c0-12.6,9.4-20.6,22.1-21.8l18.9-1.7c2.5-0.3,3.5-1.1,3.5-2.8v-1.1c0-4-3.8-6.9-12-6.9c-6.6,0-13.5,1.9-16.5,7.5
		c-0.4,0.8-1.4,0.9-2.1,0.4l-11-8c-0.6-0.4-0.8-1.3-0.4-1.9c4.8-9.7,15.7-14.5,30.1-14.5L158.7,476z M170.6,518.9v-2.8l-17,2.1
		c-5.6,0.8-8.5,3.7-8.5,7.6c0,4.5,3.5,7.4,9.8,7.4C164.5,533.2,170.7,526.5,170.6,518.9L170.6,518.9z M113.7,451.3v94.1
		c0,0.9-0.7,1.6-1.5,1.6H96.9c-0.8,0-1.6-0.7-1.6-1.6v-94.1c0-0.8,0.7-1.5,1.5-1.5h15.3C113,449.8,113.7,450.5,113.7,451.3
		L113.7,451.3z M78.7,477.4c0.8,0,1.6,0.7,1.6,1.6v63.3c0,17.9-8.5,34.1-37.5,34.1c-13.3,0-22.5-3.8-29.5-9.9
		c-0.5-0.4-0.6-1.3,0.3-2.8l6.8-11.6c0.4-0.8,1.5-1,2.2-0.3c5.5,4.9,11.7,7.5,19.5,7.5c15.4,0,20.2-7.9,20.2-17.9v-4.4
		c-4.5,6.5-12.2,10.6-22.1,10.6c-18.4,0-32.4-12.6-32.4-35.7c0-23.2,14.7-36.1,31.9-36.1c10.6,0,18.6,5.1,22.5,11.4v-8.1
		c0-0.8,0.7-1.6,1.6-1.6L78.7,477.4L78.7,477.4z M44.6,530.8c10.3,0,17.9-7.2,17.9-18.6c0-11.5-7.6-18.6-17.9-18.6
		c-10.4,0-18.1,7.4-18.1,18.6C26.5,523.4,34.3,530.8,44.6,530.8z"/>
</g>
</svg>
