<?xml version="1.0" encoding="utf-8"?>
<!-- Generator: Adobe Illustrator 19.2.1, SVG Export Plug-In . SVG Version: 6.00 Build 0)  -->
<svg version="1.1" id="layer" xmlns="http://www.w3.org/2000/svg" xmlns:xlink="http://www.w3.org/1999/xlink" x="0px" y="0px"
	 viewBox="0 0 652 652" style="enable-background:new 0 0 652 652;" xml:space="preserve">
<style type="text/css">
	.st0{fill:#0CAA41;}
</style>
<g id="FooterLogo">
	<path class="st0" d="M389.1,332.4H219.6c0,23.6,18.9,42.6,42.4,42.6h127.1c23.4,0,42.3-19.1,42.3-42.6V157.2c0-0.8-0.7-1.6-1.5-1.6
		h-39.3c-0.8,0-1.5,0.7-1.5,1.6V332.4L389.1,332.4z M389.1,76.4c23.4,0,42.3,19.1,42.3,42.7H261.9v175.2c0,0.8-0.7,1.6-1.6,1.6
		h-39.3c-0.8,0-1.6-0.7-1.6-1.6V119.1c0-23.6,18.9-42.7,42.4-42.7H389.1L389.1,76.4z"/>
</g>
</svg>
